<svg width="209" height="308" viewBox="0 0 209 308" fill="none" xmlns="http://www.w3.org/2000/svg"><g clip-path="url(#a)"><mask id="b" style="mask-type:alpha" maskUnits="userSpaceOnUse" x="-1" y="-19" width="211" height="455"><path d="M17.541-18.023c-9.88 0-17.889 8.009-17.889 17.888v418.149c0 9.88 8.01 17.889 17.89 17.889h173.855c9.88 0 17.889-8.009 17.889-17.889V-.135c0-9.88-8.009-17.888-17.889-17.888H166.8c-2.161 0-3.913 1.118-3.913 2.795v3.913c0 5.557-4.505 10.062-10.063 10.062H56.673c-5.558 0-10.063-4.505-10.063-10.062v-3.913c0-1.677-1.752-2.795-3.913-2.795H17.541Z" fill="red"/></mask><g mask="url(#b)"><path fill="#fff" d="M-.348-18.023h209.633v453.926H-.348z"/><g clip-path="url(#c)"><path fill="#000" d="M-.336-18h209.667v454H-.336z"/><path d="M0 .182C0-5.994 5.007-11 11.182-11h186.636C203.994-11 209-5.994 209 .182V436H0V.182Z" fill="#F3F8FF"/><g clip-path="url(#d)"><mask id="e" style="mask-type:alpha" maskUnits="userSpaceOnUse" x="-1" y="-1" width="211" height="437"><path d="M-.336 10.655c0-6.176 5.007-11.183 11.183-11.183H198.15c6.175 0 11.182 5.007 11.182 11.183V435.58H-.336V10.655Z" fill="#EFF4FA"/></mask><g mask="url(#e)"><circle cx="104.498" cy="7.999" r="134.467" fill="#483FDD"/></g><mask id="f" style="mask-type:alpha" maskUnits="userSpaceOnUse" x="-30" y="-127" width="269" height="270"><circle cx="104.498" cy="7.999" r="134.467" fill="#483FDD"/></mask><g mask="url(#f)"><path d="m49.07 151.067-.06-97.174c-.004-8.191 4.444-14.367 11.874-16.39 1.489-.415 3.093-.598 4.648-.599 26.106-.049 52.196-.08 78.286-.064 9.722-.006 16.666 6.99 16.689 16.887.037 35.166.026 70.332.047 105.498.018 29.606.052 59.228.07 88.834.007 10.64-6.749 17.512-17.257 17.519l-77.288.046c-10.148.006-16.928-6.874-16.934-17.184-.037-32.468-.056-64.92-.076-97.373Zm6.35.46.006 9.516c.017 28.745.051 57.506.036 86.252.002 3.21 1.198 5.774 3.507 7.842 2.686 2.414 5.927 3.14 9.446 3.122 23.733-.048 47.466-.046 71.199-.06 1.31-.001 2.619.032 3.928-.052 4.78-.284 8.641-3.315 9.882-7.949.408-1.507.522-3.128.521-4.701-.006-62.802-.06-125.588-.098-188.39 0-1.06.015-2.119-.051-3.178-.38-6.553-3.476-10.126-9.893-10.95-2.897-.378-5.876-.178-8.805-.275-1.785-.065-2.57.862-2.863 2.55-.636 3.658-2.289 5.066-6.037 5.068-14.322.041-28.643.05-42.965.026-4.026-.014-5.828-1.701-6.24-5.755-.131-1.34-.59-2.069-2.047-2.018-2.75.1-5.5-.014-8.232.17-5.303.351-9.557 3.829-10.798 8.877-.44 1.77-.538 3.657-.536 5.494-.014 31.493.021 62.952.04 94.411Z" fill="#151D51"/><path d="M55.419 151.529c-.02-31.459-.055-62.934-.041-94.394-.001-1.837.112-3.723.537-5.494 1.24-5.048 5.494-8.51 10.797-8.877 2.733-.183 5.483-.07 8.233-.17 1.457-.05 1.915.677 2.047 2.017.412 4.055 2.213 5.758 6.24 5.756 14.321.024 28.643.016 42.965-.026 3.748-.002 5.4-1.41 6.036-5.068.294-1.688 1.079-2.615 2.863-2.55 2.93.098 5.909-.103 8.806.276 6.416.84 9.512 4.396 9.893 10.95.066 1.058.05 2.117.051 3.177.037 62.802.075 125.588.097 188.391.001 1.572-.129 3.194-.521 4.7-1.241 4.634-5.102 7.665-9.881 7.949-1.31.084-2.619.051-3.928.052-23.733.014-47.466.012-71.2.06-3.519.002-6.743-.724-9.445-3.122-2.31-2.068-3.522-4.632-3.508-7.842.015-28.746-.018-57.507-.036-86.252l-.005-9.533Z" fill="#5CD6C0"/><path d="M105.811 84.69c5.197 0 9.463 2.31 11.973 6.413.916 1.497 2.434 2.623 4.19 2.623h3.372c2.746 0 4.768-2.61 3.633-5.11-4.137-9.111-12.376-14.574-22.926-14.574-15.101 0-26.568 11.98-26.568 26.783s11.467 26.743 26.568 26.743c10.55 0 18.789-5.463 22.926-14.574 1.135-2.501-.887-5.11-3.633-5.11h-3.372c-1.756 0-3.274 1.126-4.192 2.622-2.519 4.103-6.808 6.413-11.971 6.413-9.004 0-15.263-7.22-15.263-16.134 0-8.915 6.259-16.094 15.263-16.094Z" fill="#151D51"/><mask id="g" style="mask-type:alpha" maskUnits="userSpaceOnUse" x="68" y="65" width="73" height="36"><path fill="#C4C4C4" d="M68.946 65.888h71.577v34.429H68.946z"/></mask><g mask="url(#g)"><path d="M105.811 84.69c5.197 0 9.463 2.31 11.973 6.412.916 1.497 2.434 2.623 4.19 2.623h3.372c2.746 0 4.768-2.61 3.633-5.11-4.137-9.111-12.376-14.574-22.926-14.574-15.101 0-26.568 11.98-26.568 26.783s11.467 26.743 26.568 26.743c10.55 0 18.789-5.463 22.926-14.574 1.135-2.5-.887-5.11-3.633-5.11h-3.372c-1.756 0-3.274 1.126-4.192 2.622-2.519 4.103-6.808 6.413-11.971 6.413-9.004 0-15.263-7.22-15.263-16.134 0-8.915 6.259-16.095 15.263-16.095Z" fill="#483FDD"/></g><circle cx="4.391" cy="4.391" r="4.391" transform="matrix(-1 0 0 1 102.149 23.203)" fill="#DF723A"/><path d="m97.07 22.233-4.277 8.67 5.575 4.484" stroke="#DF723A" stroke-width="4.972" stroke-linecap="round"/><path d="M100.894 35.462c0 .82-.665 1.485-1.485 1.485-2.526 0-1.486-.665-1.486-1.485a1.485 1.485 0 0 1 2.971 0Zm17.682-1.192c0 .82-.665 1.485-1.485 1.485-2.377 0-1.486-.665-1.486-1.485a1.485 1.485 0 0 1 2.971 0Z" fill="#DF723A"/><path d="m106.599 30.731 1.597 3.821 8.554-.228" stroke="#DF723A" stroke-width="4.972" stroke-linecap="round"/><path d="M121.808 31.315a2.514 2.514 0 0 0-1.669-2.286l-4.71-1.678a3.378 3.378 0 1 0-1.134 6.561h5a2.515 2.515 0 0 0 2.513-2.597Z" fill="#F5AC4C"/><path d="M113.213 30.76h-6.052" stroke="#F5AC4C" stroke-width="10.693" stroke-linecap="round"/><path d="M116.461 35.844h-9.581" stroke="#F5AC4C" stroke-width="4.972" stroke-linecap="round"/><circle cx="121.395" cy="30.189" r=".912" transform="rotate(-1.896 121.395 30.189)" fill="#151D51"/><path d="M110.296 25.67c.007-.554.4-1.027.943-1.137l4.154-.838a1.626 1.626 0 1 1 .3 3.221l-4.238-.056a1.174 1.174 0 0 1-1.159-1.19Z" fill="#5579F0"/><rect x="111.27" y="26.729" width="6.233" height=".971" rx=".486" transform="rotate(.758 111.27 26.729)" fill="#151D51"/><path d="m111.758 25.31.692 4.355 1.962-1.342-2.654-3.014Zm-2.881 3.117c0 .994.207 4.364 0 4.605l-1.654 4.258h-1.313c-2.641 0-6.956-8.863-6.956-8.863l-5.02-1.755-2.908.57s-2.794-4.641 2.11-7.004c4.905-2.363 11.982 3.794 14.087 7.004.207.31 1.654.19 1.654 1.185Z" fill="#F5AC4C"/><path d="M95.286 12.816c-5.688.466-7.206 5.93-4.268 9.88l1.793-1.905c-2.87-4.59.455-7.23 2.475-7.975Zm7.433 20.139c0 2.425 1.762 4.391 3.935 4.391 2.174 0 1.603-1.966 1.603-4.391s.571-4.391-1.603-4.391c-2.173 0-3.935 1.966-3.935 4.39Z" fill="#F5AC4C"/><path d="M90.173 24.858c0 2.425 1.966 5.931 4.391 5.931 1.711.628 6.217.456 4.392-5.931a4.391 4.391 0 0 0-8.783 0Z" fill="#F5AC4C"/><path d="m92.567 23.375.57 6.73-2.794 2.224 4.106 3.137" stroke="#F5AC4C" stroke-width="4.972" stroke-linecap="round" stroke-linejoin="round"/><path d="M97.686 35.003a1.485 1.485 0 0 0-1.965-.742c-2.301 1.04-2.692 1.255-2.354 2.003.338.747 2.83 1.042 3.578.704a1.485 1.485 0 0 0 .741-1.965Z" fill="#F5AC4C"/><path d="m65.227 100.873-9.838 5.462V95.48l9.838 5.393Zm79.101.001 9.569 5.393V95.412l-9.569 5.462Z" fill="#483FDD"/><path fill="#483FDD" d="M61.492 100.056h87.74v1.635h-87.74z"/></g></g><g clip-path="url(#h)"><path d="M89.628 176.936c-1.056.72-1.704 1.44-1.896 2.472h7.152V182H84.06v-1.032c0-2.64 1.344-4.632 3.24-5.88l2.472-1.632c.912-.624 1.968-1.344 1.968-2.568 0-1.104-.84-1.896-2.016-1.896-1.56 0-2.352 1.248-2.424 2.4h-3.216c.096-2.328 1.944-5.016 5.808-5.016 3.048 0 5.04 1.68 5.04 4.416 0 2.592-1.776 3.792-2.64 4.368l-2.664 1.776Zm13.062-4.776c2.712 0 4.776 2.016 4.776 4.944 0 3.168-2.376 5.136-5.568 5.136-3.336 0-5.616-2.112-5.616-5.376 0-2.256 1.104-4.008 2.016-5.352l3.312-4.872h3.768l-4.248 5.736a5.567 5.567 0 0 1 1.56-.216Zm-.768 7.584c1.56 0 2.52-1.176 2.52-2.688 0-1.488-.936-2.616-2.496-2.616-1.584 0-2.52 1.128-2.52 2.616 0 1.512.96 2.688 2.496 2.688Zm11.016-5.976c-2.016 0-3.672-1.68-3.672-3.696a3.687 3.687 0 0 1 3.672-3.672c1.992 0 3.672 1.656 3.672 3.672s-1.68 3.696-3.672 3.696Zm11.352-7.128L113.922 182h-3.288l10.368-15.36h3.288Zm-11.376 4.824c.816 0 1.392-.6 1.392-1.392 0-.792-.576-1.368-1.392-1.368-.768 0-1.344.576-1.344 1.368 0 .792.576 1.392 1.344 1.392Zm9.216 10.776c-1.992 0-3.672-1.656-3.672-3.672s1.68-3.696 3.672-3.696c1.992 0 3.696 1.68 3.696 3.696s-1.704 3.672-3.696 3.672Zm0-2.304c.816 0 1.368-.576 1.368-1.368 0-.792-.552-1.392-1.368-1.392-.768 0-1.344.6-1.344 1.392 0 .792.576 1.368 1.344 1.368ZM56.86 202.24c-3.383 0-5.16-1.608-5.327-4.08h2.952c.168 1.296 1.128 1.8 2.352 1.8.936 0 1.752-.36 1.752-1.224 0-.912-.816-1.296-2.112-1.632l-1.128-.288c-1.608-.384-3.432-1.032-3.432-3.384 0-2.4 2.112-3.672 4.488-3.672 3.24 0 4.728 1.704 4.896 3.672h-2.952c-.12-.864-.792-1.392-1.92-1.392-.936 0-1.584.456-1.584 1.224 0 .84.816 1.056 1.968 1.368l1.128.288c2.088.528 3.576 1.488 3.576 3.744 0 2.472-2.112 3.576-4.656 3.576Zm12.11 0c-3.743 0-6.287-2.568-6.287-6.192 0-3.768 2.736-6.288 6.24-6.288 2.784 0 5.424 1.488 5.808 4.632h-3.072c-.264-1.104-1.296-1.968-2.736-1.968-1.824 0-3.168 1.488-3.168 3.624 0 2.112 1.248 3.528 3.216 3.528 1.392 0 2.328-.624 2.712-1.728h3.096c-.408 2.688-2.688 4.392-5.808 4.392Zm18.584-2.544h.288V202h-1.296c-1.128 0-2.016-.336-2.424-1.44-.816 1.032-2.064 1.68-3.96 1.68-2.448 0-4.248-1.152-4.248-3.528 0-2.304 1.752-3.432 3.96-3.648l3.744-.384v-.504c0-1.32-.84-1.968-2.016-1.968-1.296 0-1.968.72-2.16 1.8H76.37c.24-2.496 2.16-4.248 5.232-4.248 2.808 0 5.088 1.416 5.088 4.632v4.392c0 .624.288.912.864.912Zm-3.936-2.328v-.576l-2.688.288c-1.104.12-1.944.576-1.944 1.512 0 .96.744 1.296 1.704 1.296 1.296 0 2.928-.624 2.928-2.52ZM89.162 202v-12h2.808l.264 1.416h.192c.72-.936 1.728-1.656 3.528-1.656 2.856 0 4.68 1.824 4.68 4.968V202h-3.072v-6.648c0-1.968-1.128-2.928-2.568-2.928-1.464 0-2.76.936-2.76 3.072V202h-3.072Zm13.658 0v-12h2.808l.264 1.416h.192c.72-.936 1.728-1.656 3.528-1.656 2.856 0 4.68 1.824 4.68 4.968V202h-3.072v-6.648c0-1.968-1.128-2.928-2.568-2.928-1.464 0-2.76.936-2.76 3.072V202h-3.072Zm21.942-3.792h2.952c-.48 2.472-2.544 4.032-5.592 4.032-3.576 0-6.168-2.424-6.168-6.12 0-3.96 2.736-6.36 6.048-6.36 2.952 0 5.688 1.872 5.688 6.168 0 .288-.024.552-.048.888h-8.64c.12 1.728 1.248 2.976 3.12 2.976 1.344 0 2.304-.552 2.64-1.584Zm-2.76-6c-1.656 0-2.76 1.104-2.976 2.544h5.736c-.072-1.488-1.176-2.544-2.76-2.544Zm16.121-7.248h3.072V202h-2.496l-.264-1.416h-.216c-.576.768-1.704 1.656-3.576 1.656-3.216 0-5.64-2.448-5.64-6.264 0-3.912 2.496-6.216 5.64-6.216 1.632 0 2.832.648 3.48 1.368v-6.168Zm-3 14.616c1.824 0 3-1.44 3-3.6 0-2.112-1.176-3.552-3-3.552s-3.048 1.44-3.048 3.552c0 2.16 1.224 3.6 3.048 3.6Zm10.047 2.544a1.839 1.839 0 0 1-1.824-1.824c0-1.032.84-1.848 1.824-1.848 1.008 0 1.824.816 1.824 1.848a1.823 1.823 0 0 1-1.824 1.824Zm5.548 0a1.839 1.839 0 0 1-1.824-1.824c0-1.032.84-1.848 1.824-1.848 1.008 0 1.824.816 1.824 1.848a1.823 1.823 0 0 1-1.824 1.824Zm5.549 0a1.839 1.839 0 0 1-1.824-1.824c0-1.032.84-1.848 1.824-1.848 1.008 0 1.824.816 1.824 1.848a1.823 1.823 0 0 1-1.824 1.824Z" fill="#151D51"/></g></g><rect x="38.727" y="219.126" width="126.73" height="54.391" rx="5.439" fill="#fff"/><path d="M85.084 242.119c0 .64-.228 1.129-.685 1.469-.45.339-1.015.509-1.694.509-.796 0-1.416-.196-1.86-.587-.438-.399-.67-.934-.695-1.606h1.272c.033.346.157.617.373.812.221.19.525.284.91.284.313 0 .571-.068.773-.205.203-.144.304-.356.304-.637a.842.842 0 0 0-.108-.43.79.79 0 0 0-.323-.314 2.266 2.266 0 0 0-.391-.205 5.936 5.936 0 0 0-.48-.157l-.392-.117c-1.148-.346-1.723-.983-1.723-1.909 0-.601.219-1.081.656-1.44.437-.359.992-.538 1.664-.538.692 0 1.25.189 1.675.568.424.372.646.855.665 1.449h-1.272c-.033-.281-.138-.503-.314-.666-.176-.17-.424-.255-.744-.255-.307 0-.555.075-.744.226a.724.724 0 0 0-.284.597c0 .137.03.261.088.372a.856.856 0 0 0 .294.274c.13.072.248.127.352.166.112.04.258.089.441.147l.343.108c.17.052.32.104.45.157.137.052.3.137.49.254.195.111.355.238.48.382.13.137.24.32.332.548.098.222.147.47.147.744Zm3.008 1.978c-.763 0-1.383-.235-1.86-.705-.47-.47-.705-1.077-.705-1.821 0-.757.242-1.374.725-1.85.49-.477 1.096-.715 1.82-.715.608 0 1.136.163 1.587.489.45.327.711.793.783 1.4h-1.253a1.008 1.008 0 0 0-.392-.577 1.156 1.156 0 0 0-.724-.225c-.372 0-.682.14-.93.421-.242.274-.363.626-.363 1.057 0 .431.118.78.353 1.048.241.261.561.391.96.391.574 0 .942-.235 1.106-.705h1.263a1.957 1.957 0 0 1-.774 1.312c-.424.32-.956.48-1.596.48Zm7.476-1.038h.117v.94h-.529c-.515 0-.845-.196-.988-.587-.36.456-.898.685-1.616.685-.522 0-.943-.121-1.263-.362-.313-.248-.47-.607-.47-1.077 0-.444.147-.79.44-1.038.301-.255.693-.405 1.176-.45l1.527-.157v-.206c0-.261-.075-.46-.225-.597-.15-.137-.35-.205-.597-.205-.503 0-.797.244-.882.734h-1.253c.053-.522.268-.94.647-1.253.378-.32.874-.48 1.488-.48.613 0 1.112.16 1.498.48.385.313.577.783.577 1.409v1.792c0 .248.118.372.353.372Zm-1.606-.95v-.234l-1.097.117c-.528.059-.792.264-.792.617 0 .352.231.528.695.528.313 0 .59-.081.832-.244.241-.17.362-.431.362-.784Zm2.156 1.89v-4.895h1.146l.108.577h.078c.346-.45.825-.675 1.439-.675.587 0 1.05.179 1.39.538.346.359.519.855.519 1.489v2.966h-1.253v-2.712c0-.385-.098-.679-.294-.881a.987.987 0 0 0-.754-.313c-.32 0-.587.107-.802.323-.216.209-.323.519-.323.93v2.653h-1.254Zm5.466 0v-4.895h1.146l.108.577h.078c.346-.45.826-.675 1.439-.675.587 0 1.051.179 1.39.538.346.359.519.855.519 1.489v2.966h-1.253v-2.712c0-.385-.098-.679-.294-.881a.985.985 0 0 0-.754-.313c-.319 0-.587.107-.802.323-.216.209-.323.519-.323.93v2.653h-1.254Zm6.103-5.522a.77.77 0 0 1-.549-.225.723.723 0 0 1-.225-.529c0-.215.075-.394.225-.538a.77.77 0 0 1 .549-.225c.208 0 .385.075.528.225.15.144.225.323.225.538a.723.723 0 0 1-.225.529.723.723 0 0 1-.528.225Zm-.627 5.522v-4.895h1.253v4.895h-1.253Zm2.043 0v-4.895h1.146l.107.577h.079c.346-.45.825-.675 1.439-.675.587 0 1.051.179 1.39.538.346.359.519.855.519 1.489v2.966h-1.253v-2.712c0-.385-.098-.679-.294-.881a.987.987 0 0 0-.754-.313c-.319 0-.587.107-.802.323-.216.209-.324.519-.324.93v2.653h-1.253Zm10.033-4.758c-.189.196-.454.375-.793.538.209.268.313.575.313.921 0 .509-.192.91-.577 1.204-.385.294-.878.44-1.479.44-.293 0-.568-.035-.822-.107-.157.078-.235.186-.235.323 0 .248.215.372.646.372h.96c.574 0 1.014.13 1.321.391.307.255.46.607.46 1.058 0 .522-.205.93-.616 1.224-.412.3-.973.45-1.684.45-.731 0-1.299-.157-1.704-.47-.398-.307-.623-.698-.675-1.175l.744-.656c-.372-.202-.558-.502-.558-.9 0-.399.218-.718.656-.96a1.439 1.439 0 0 1-.578-1.194c0-.49.183-.895.548-1.214.372-.32.865-.48 1.479-.48.43 0 .809.082 1.135.245.346-.177.627-.408.842-.695l.617.685Zm-2.536 2.193c.261 0 .47-.069.627-.206a.708.708 0 0 0 .235-.548.722.722 0 0 0-.235-.558c-.15-.144-.359-.215-.627-.215-.267 0-.483.071-.646.215a.71.71 0 0 0-.245.558c0 .222.082.405.245.548.163.137.379.206.646.206Zm1.136 3.015c0-.189-.072-.326-.215-.411a1.023 1.023 0 0 0-.529-.127h-.891l-.646.548a.856.856 0 0 0 .382.47c.202.124.47.186.802.186.32 0 .581-.059.784-.176.209-.111.313-.274.313-.49Zm6.041-5.805v.46h1.244v.989h-1.244v3.906h-1.253v-3.906h-1.028v-.989h1.028v-.529c0-.496.147-.874.441-1.136.3-.261.698-.391 1.194-.391.294 0 .607.055.94.166l-.215.911a1.524 1.524 0 0 0-.5-.079c-.404 0-.607.2-.607.598Zm3.93 5.453c-.737 0-1.354-.238-1.85-.715-.49-.483-.734-1.096-.734-1.84s.244-1.351.734-1.821c.489-.477 1.106-.715 1.85-.715s1.361.238 1.851.715c.489.47.734 1.077.734 1.821 0 .75-.245 1.364-.734 1.84-.49.477-1.107.715-1.851.715Zm0-1.087c.398 0 .721-.14.97-.421.248-.28.372-.63.372-1.047 0-.412-.124-.754-.372-1.028-.249-.281-.572-.421-.97-.421s-.721.14-.969.421c-.241.274-.362.616-.362 1.028 0 .417.124.767.372 1.047.248.281.568.421.959.421Zm3.191.989v-4.895h1.136l.117.695h.078c.17-.274.359-.473.568-.597.209-.131.506-.196.891-.196h.353v1.253a3.253 3.253 0 0 0-.529-.039c-.49 0-.839.147-1.048.441-.209.287-.313.639-.313 1.057v2.281h-1.253Zm-48.526 11.098c-1.018 0-1.527-.477-1.527-1.429v-2.575h-1.048v-.989h.333c.3 0 .513-.056.636-.167.131-.117.196-.31.196-.577v-.588h1.136v1.332h1.282v.989h-1.282v2.408c0 .111.01.206.03.284a.476.476 0 0 0 .195.225.812.812 0 0 0 .431.098c.15 0 .31-.023.48-.068v.949c-.314.072-.6.108-.862.108Zm1.466-.098v-4.895h1.136l.117.695h.079c.17-.274.359-.473.567-.597.21-.131.506-.196.891-.196h.353v1.253a3.246 3.246 0 0 0-.529-.039c-.49 0-.838.147-1.047.441-.21.287-.314.639-.314 1.057v2.281h-1.253Zm7.924-.94h.118v.94h-.529c-.515 0-.845-.196-.989-.587-.359.456-.897.685-1.615.685-.522 0-.943-.121-1.263-.362-.313-.248-.47-.607-.47-1.077 0-.444.147-.79.44-1.038.3-.255.693-.405 1.175-.45l1.528-.157v-.206c0-.261-.075-.46-.225-.597-.15-.137-.35-.205-.598-.205-.502 0-.796.244-.88.734H87.2c.052-.522.268-.94.646-1.253.379-.32.875-.48 1.488-.48.614 0 1.113.16 1.498.48.385.313.578.783.578 1.409v1.792c0 .248.118.372.352.372Zm-1.605-.95v-.234l-1.097.117c-.528.059-.793.264-.793.617 0 .352.232.528.695.528.314 0 .591-.081.833-.244.241-.17.362-.431.362-.784Zm4.44 1.988c-.763 0-1.383-.235-1.86-.705-.47-.47-.704-1.077-.704-1.821 0-.757.241-1.374.724-1.85.49-.477 1.097-.715 1.821-.715.607 0 1.136.163 1.586.489.45.327.712.793.783 1.4h-1.253a1.008 1.008 0 0 0-.391-.577 1.156 1.156 0 0 0-.725-.225c-.372 0-.682.14-.93.421-.242.274-.362.626-.362 1.057 0 .431.117.78.352 1.048.242.261.562.391.96.391.574 0 .943-.235 1.106-.705h1.263a1.957 1.957 0 0 1-.773 1.312c-.425.32-.957.48-1.596.48Zm7.525-4.993-1.997 1.948 1.997 2.947h-1.38l-1.459-2.124-.509.489v1.635h-1.253v-6.951h1.253v3.75h.079l1.762-1.694h1.507Zm.956-.627a.768.768 0 0 1-.548-.225.723.723 0 0 1-.225-.529c0-.215.075-.394.225-.538a.768.768 0 0 1 .548-.225c.209 0 .385.075.529.225.15.144.225.323.225.538a.723.723 0 0 1-.225.529.723.723 0 0 1-.529.225Zm-.626 5.522v-4.895h1.253v4.895h-1.253Zm2.043 0v-4.895h1.145l.108.577h.078c.346-.45.826-.675 1.44-.675.587 0 1.05.179 1.39.538.346.359.519.855.519 1.489v2.966h-1.253v-2.712c0-.385-.098-.679-.294-.881a.987.987 0 0 0-.754-.313c-.32 0-.587.107-.803.323-.215.209-.323.519-.323.93v2.653h-1.253Zm10.033-4.758c-.19.196-.454.375-.793.538.209.268.313.575.313.921 0 .509-.193.91-.578 1.204-.385.294-.878.44-1.478.44-.294 0-.568-.035-.822-.107-.157.078-.235.186-.235.323 0 .248.215.372.646.372h.959c.575 0 1.015.13 1.322.391.307.255.46.607.46 1.058 0 .522-.206.93-.617 1.224-.411.3-.972.45-1.684.45-.731 0-1.299-.157-1.703-.47-.398-.307-.624-.698-.676-1.175l.744-.656c-.372-.202-.558-.502-.558-.9 0-.399.219-.718.656-.96a1.438 1.438 0 0 1-.577-1.194c0-.49.182-.895.548-1.214.372-.32.865-.48 1.478-.48.431 0 .81.082 1.136.245.346-.177.626-.408.842-.695l.617.685Zm-2.536 2.193c.261 0 .47-.069.627-.206a.712.712 0 0 0 .235-.548.726.726 0 0 0-.235-.558c-.151-.144-.359-.215-.627-.215s-.483.071-.646.215a.71.71 0 0 0-.245.558c0 .222.082.405.245.548.163.137.378.206.646.206Zm1.136 3.015c0-.189-.072-.326-.216-.411a1.02 1.02 0 0 0-.528-.127h-.891l-.647.548a.86.86 0 0 0 .382.47c.203.124.47.186.803.186.32 0 .581-.059.783-.176.209-.111.314-.274.314-.49Zm8.674-1.39h.118v.94h-.529c-.515 0-.845-.196-.989-.587-.359.456-.897.685-1.615.685-.522 0-.943-.121-1.263-.362-.313-.248-.47-.607-.47-1.077 0-.444.147-.79.441-1.038.3-.255.692-.405 1.175-.45l1.527-.157v-.206c0-.261-.075-.46-.225-.597-.15-.137-.35-.205-.598-.205-.502 0-.796.244-.881.734h-1.253c.052-.522.268-.94.646-1.253.379-.32.875-.48 1.488-.48.614 0 1.113.16 1.498.48.385.313.578.783.578 1.409v1.792c0 .248.118.372.352.372Zm-1.605-.95v-.234l-1.097.117c-.528.059-.793.264-.793.617 0 .352.232.528.695.528.314 0 .591-.081.833-.244.241-.17.362-.431.362-.784Zm4.829-3.103c.666 0 1.214.235 1.645.705.437.47.656 1.087.656 1.85 0 .777-.219 1.394-.656 1.851-.438.456-.986.685-1.645.685-.614 0-1.087-.186-1.42-.558v2.418h-1.253v-6.853h1.018l.108.577h.088c.34-.45.826-.675 1.459-.675Zm-1.087 3.603c.222.267.519.401.891.401s.672-.134.901-.401c.228-.268.342-.617.342-1.048 0-.437-.114-.79-.342-1.057a1.117 1.117 0 0 0-.901-.411c-.372 0-.669.133-.891.401-.222.268-.333.623-.333 1.067 0 .431.111.78.333 1.048Zm6.668-3.603c.665 0 1.214.235 1.644.705.438.47.656 1.087.656 1.85 0 .777-.218 1.394-.656 1.851-.437.456-.985.685-1.644.685-.614 0-1.087-.186-1.42-.558v2.418h-1.253v-6.853h1.018l.108.577h.088c.339-.45.826-.675 1.459-.675Zm-1.087 3.603c.222.267.519.401.891.401s.672-.134.901-.401c.228-.268.342-.617.342-1.048 0-.437-.114-.79-.342-1.057a1.117 1.117 0 0 0-.901-.411c-.372 0-.669.133-.891.401-.222.268-.333.623-.333 1.067 0 .431.111.78.333 1.048Zm5.916 1.488c-.672 0-1.194-.147-1.566-.441-.372-.3-.574-.708-.607-1.223h1.204c.065.489.385.734.96.734a.976.976 0 0 0 .509-.118.418.418 0 0 0 .205-.381.446.446 0 0 0-.215-.402c-.137-.098-.353-.186-.646-.264l-.46-.118a4.163 4.163 0 0 1-.509-.147 2.735 2.735 0 0 1-.431-.235 1.015 1.015 0 0 1-.343-.401 1.42 1.42 0 0 1-.117-.597c0-.47.176-.836.528-1.097.353-.267.787-.401 1.302-.401.627 0 1.107.14 1.44.421.332.281.518.64.558 1.077h-1.205c-.052-.379-.313-.568-.783-.568a.748.748 0 0 0-.47.137.422.422 0 0 0-.176.362c0 .157.059.271.176.343.124.065.333.137.627.215l.46.118c.47.117.829.294 1.077.529.254.235.382.567.382.998 0 .483-.18.849-.539 1.097-.352.241-.806.362-1.361.362Zm3.256-.049a.742.742 0 0 1-.529-.215.74.74 0 0 1-.215-.529c0-.209.071-.385.215-.529a.723.723 0 0 1 .529-.225c.208 0 .385.075.528.225.144.144.216.32.216.529a.742.742 0 0 1-.216.529.72.72 0 0 1-.528.215Zm2.858-.215a.718.718 0 0 1-.528.215.755.755 0 0 1-.539-.215.745.745 0 0 1-.215-.529c0-.209.072-.385.215-.529.15-.15.33-.225.539-.225a.7.7 0 0 1 .528.225c.144.144.216.32.216.529a.742.742 0 0 1-.216.529Zm1.792.215a.752.752 0 0 1-.538-.215.742.742 0 0 1-.216-.529c0-.209.072-.385.216-.529a.734.734 0 0 1 .538-.225c.209 0 .385.075.529.225.143.144.215.32.215.529a.727.727 0 0 1-.225.529.71.71 0 0 1-.519.215Z" fill="#151D51"/><path fill-rule="evenodd" clip-rule="evenodd" d="M60.483 243.938a2.55 2.55 0 1 0 0-5.101 2.55 2.55 0 0 0 0 5.101Z" fill="#6C1DA0"/><path fill-rule="evenodd" clip-rule="evenodd" d="M67.18 249.996a2.55 2.55 0 1 0 0-5.102 2.55 2.55 0 0 0 0 5.102Z" fill="#483FDD"/><path fill-rule="evenodd" clip-rule="evenodd" d="M53.788 249.996a2.55 2.55 0 1 0 0-5.102 2.55 2.55 0 0 0 0 5.102Z" fill="#5CD6C0"/><rect x="174.16" y="219.126" width="126.73" height="54.391" rx="5.439" fill="#fff" opacity=".5"/></g></g><defs><clipPath id="a"><rect width="209" height="436" rx="14" fill="#fff"/></clipPath><clipPath id="c"><path fill="#fff" d="M-.336-18h209.667v454H-.336z"/></clipPath><clipPath id="d"><path fill="#fff" d="M-.336-.108h209.667v143.133H-.336z"/></clipPath><clipPath id="h"><path fill="#fff" d="M18 162h173.884v41H18z"/></clipPath></defs></svg>