<svg width="209" height="308" viewBox="0 0 209 308" fill="none" xmlns="http://www.w3.org/2000/svg"><g clip-path="url(#clip0_1_1232)"><mask id="mask0_1_1232" style="mask-type:alpha" maskUnits="userSpaceOnUse" x="-1" y="-19" width="211" height="455"><path d="M17.5411 -18.0234C7.66138 -18.0234 -0.347656 -10.0144 -0.347656 -0.134727V418.014C-0.347656 427.894 7.66138 435.903 17.5411 435.903H191.397C201.277 435.903 209.286 427.894 209.286 418.014V-0.134727C209.286 -10.0144 201.277 -18.0234 191.397 -18.0234H166.8C164.639 -18.0234 162.887 -16.9054 162.887 -15.2283V-11.3152C162.887 -5.75786 158.382 -1.25277 152.824 -1.25277H56.6726C51.1153 -1.25277 46.6102 -5.75786 46.6102 -11.3152V-15.2283C46.6102 -16.9054 44.8582 -18.0234 42.697 -18.0234H17.5411Z" fill="#FF0000"/></mask><g mask="url(#mask0_1_1232)"><rect x="-0.347656" y="-18.0234" width="209.633" height="453.926" fill="white"/><g clip-path="url(#clip1_1_1232)"><rect x="-0.335938" y="-18" width="209.667" height="454" fill="black"/><path d="M0.000244141 0.182293C0.000244141 -5.9935 5.00672 -11 11.1825 -11H197.818C203.994 -11 209 -5.9935 209 0.182297V436H0.000244141V0.182293Z" fill="#F3F9FF"/><g clip-path="url(#clip2_1_1232)"><mask id="mask1_1_1232" style="mask-type:alpha" maskUnits="userSpaceOnUse" x="-1" y="-1" width="211" height="437"><path d="M-0.335388 10.6548C-0.335388 4.479 4.67108 -0.527496 10.8469 -0.527496H198.15C204.326 -0.527496 209.332 4.47897 209.332 10.6548V435.581H-0.335388V10.6548Z" fill="#EFF4FA"/></mask><g mask="url(#mask1_1_1232)"><circle cx="104.499" cy="7.99883" r="134.467" fill="#7C42D5"/></g><mask id="mask2_1_1232" style="mask-type:alpha" maskUnits="userSpaceOnUse" x="-30" y="-127" width="269" height="270"><circle cx="104.499" cy="7.99883" r="134.467" fill="#7C42D5"/></mask><g mask="url(#mask2_1_1232)"><path d="M85.9142 48.7878C85.9142 39.7591 93.2334 32.4398 102.262 32.4398H162.886C171.914 32.4398 179.234 39.7591 179.234 48.7878V157.774C179.234 164.169 174.049 169.354 167.654 169.354H97.494C91.0986 169.354 85.9142 164.169 85.9142 157.774V48.7878Z" fill="#5CD6C0" stroke="#151D51" stroke-width="6.81164"/><rect x="149.094" y="55.6649" width="22.5073" height="22.5073" rx="5.62681" fill="#45CCB4"/><rect x="149.094" y="84.7372" width="22.5073" height="22.5073" rx="5.62681" fill="#45CCB4"/><rect x="149.094" y="113.808" width="22.5073" height="22.5073" rx="5.62681" fill="#45CCB4"/><rect x="121.895" y="55.6649" width="21.5695" height="22.5073" rx="5.62681" fill="#45CCB4"/><rect x="121.895" y="84.7372" width="21.5695" height="22.5073" rx="5.62681" fill="#45CCB4"/><rect x="121.895" y="113.808" width="21.5695" height="22.5073" rx="5.62681" fill="#45CCB4"/><rect x="93.7623" y="55.6649" width="22.5073" height="22.5073" rx="5.62681" fill="#45CCB4"/><rect x="93.7623" y="84.7372" width="22.5073" height="22.5073" rx="5.62681" fill="#45CCB4"/><rect x="93.7623" y="113.809" width="22.5073" height="22.5073" rx="5.62681" fill="#45CCB4"/><path d="M111.119 35.8456H107.032C109.127 36.1948 110.77 37.837 111.119 39.9325V35.8456Z" fill="#151D51"/><path d="M154.71 35.8456H158.797C156.702 36.1948 155.06 37.837 154.71 39.9325V35.8456Z" fill="#151D51"/><path d="M111.118 35.8456H154.712V39.9325C154.712 42.5659 152.577 44.7007 149.944 44.7007H115.886C113.253 44.7007 111.118 42.5659 111.118 39.9325V35.8456Z" fill="#151D51"/><path d="M131.672 85.9989L155.587 155.57" stroke="#F5AC4C" stroke-width="16.5558" stroke-linecap="round"/><path d="M131.672 85.9989L132.697 88.8072" stroke="#FBD9AE" stroke-width="12.7932" stroke-linecap="round"/><path d="M157.501 117.098L175.593 169.668" stroke="#F5AC4C" stroke-width="16.5558" stroke-linecap="round"/><path d="M172.129 115.74L190.222 168.311" stroke="#F5AC4C" stroke-width="16.5558" stroke-linecap="round"/><path d="M184.61 117.098L202.703 169.668" stroke="#F5AC4C" stroke-width="16.5558" stroke-linecap="round"/><rect x="36.7349" y="42.161" width="65.3462" height="45.6062" rx="9.52965" transform="rotate(16.4293 36.7349 42.161)" fill="#151D51"/><ellipse cx="89.9127" cy="75.3181" rx="13.6138" ry="16.6769" transform="rotate(15.8738 89.9127 75.3181)" fill="#151D51"/><ellipse cx="91.9636" cy="75.5814" rx="8.36653" ry="12.5338" transform="rotate(15.8738 91.9636 75.5814)" fill="#483FDD"/><ellipse cx="1.77819" cy="2.66389" rx="1.77819" ry="2.66389" transform="matrix(-0.961867 -0.273519 -0.273519 0.961867 84.1685 85.1151)" fill="#F36587"/><path d="M31.8314 49.1222L51.6626 54.5555" stroke="#151D51" stroke-width="15.6559" stroke-linecap="round"/><path d="M64.8364 93.911L85.9378 210.99" stroke="#151D51" stroke-width="12.2524" stroke-linecap="round"/><path d="M61.9614 91.2243L22.4814 206.942" stroke="#151D51" stroke-width="12.2524" stroke-linecap="round"/><path d="M54.1294 90.2187L-21.5916 186.216" stroke="#151D51" stroke-width="12.2524" stroke-linecap="round"/></g></g><g clip-path="url(#clip3_1_1232)"><path d="M89.3301 176.308C89.3301 179.596 86.5941 181.156 83.4981 181.156C79.4901 181.156 77.3541 178.996 77.2341 175.78H80.3541C80.4981 177.46 81.5781 178.468 83.4981 178.468C84.9381 178.468 86.1381 177.868 86.1381 176.404C86.1381 174.7 84.4821 174.148 82.9461 173.692L81.9861 173.404C79.9221 172.78 77.7621 171.508 77.7621 168.724C77.7621 165.724 80.2101 163.876 83.4501 163.876C86.9061 163.876 89.0901 165.964 89.1861 168.82H86.0661C85.9221 167.5 85.0821 166.564 83.4741 166.564C81.9861 166.564 80.9541 167.356 80.9541 168.58C80.9541 170.02 82.4181 170.5 83.8341 170.932L84.6741 171.196C86.2581 171.676 89.3301 172.804 89.3301 176.308ZM96.4335 181.156C93.0735 181.156 92.6895 178.972 92.6895 177.652V171.34H90.1215V168.916H90.9375C92.4015 168.916 92.9775 168.388 92.9775 167.092V165.652H95.7615V168.916H98.9055V171.34H95.7615V177.244C95.7615 177.916 95.9295 178.732 97.3695 178.732C97.7295 178.732 98.1855 178.66 98.5455 178.564V180.892C98.0175 181.012 97.2975 181.156 96.4335 181.156ZM105.723 181.156C102.147 181.156 99.3871 178.588 99.3871 174.892C99.3871 171.196 102.123 168.676 105.723 168.676C109.323 168.676 112.059 171.22 112.059 174.892C112.059 178.612 109.347 181.156 105.723 181.156ZM105.723 178.492C107.715 178.492 109.011 176.908 109.011 174.892C109.011 172.9 107.691 171.34 105.723 171.34C103.755 171.34 102.459 172.9 102.459 174.892C102.459 176.908 103.755 178.492 105.723 178.492ZM120.355 168.676C123.571 168.676 125.995 171.124 125.995 174.94C125.995 178.852 123.499 181.156 120.355 181.156C118.723 181.156 117.523 180.508 116.875 179.788V185.716H113.803V168.916H116.299L116.563 170.332H116.779C117.355 169.564 118.483 168.676 120.355 168.676ZM119.875 178.492C121.699 178.492 122.923 177.052 122.923 174.94C122.923 172.78 121.699 171.34 119.875 171.34C118.051 171.34 116.875 172.78 116.875 174.94C116.875 177.052 118.051 178.492 119.875 178.492ZM55.2094 201.095C52.6867 201.095 51.3627 199.896 51.2375 198.053H53.4382C53.5634 199.02 54.2791 199.395 55.1915 199.395C55.8893 199.395 56.4976 199.127 56.4976 198.483C56.4976 197.803 55.8893 197.517 54.9232 197.266L54.0823 197.051C52.8835 196.765 51.5238 196.282 51.5238 194.529C51.5238 192.74 53.0982 191.791 54.8695 191.791C57.2849 191.791 58.3941 193.062 58.5194 194.529H56.3187C56.2293 193.885 55.7283 193.491 54.8874 193.491C54.1896 193.491 53.7065 193.831 53.7065 194.403C53.7065 195.03 54.3149 195.191 55.1737 195.423L56.0146 195.638C57.5711 196.032 58.6804 196.747 58.6804 198.429C58.6804 200.272 57.1059 201.095 55.2094 201.095ZM65.9947 198.089H68.1954C67.8376 199.932 66.2989 201.095 64.0267 201.095C61.3608 201.095 59.4285 199.288 59.4285 196.533C59.4285 193.58 61.4681 191.791 63.9372 191.791C66.1379 191.791 68.1775 193.187 68.1775 196.389C68.1775 196.604 68.1596 196.801 68.1417 197.051H61.7007C61.7902 198.34 62.6311 199.27 64.0267 199.27C65.0286 199.27 65.7442 198.858 65.9947 198.089ZM63.9372 193.616C62.7027 193.616 61.8797 194.439 61.7186 195.513H65.9947C65.9411 194.403 65.118 193.616 63.9372 193.616ZM73.7049 201.095C70.9138 201.095 69.0173 199.181 69.0173 196.479C69.0173 193.67 71.0569 191.791 73.6691 191.791C75.7445 191.791 77.7126 192.901 77.9989 195.244H75.7088C75.512 194.421 74.7426 193.777 73.6691 193.777C72.3094 193.777 71.3074 194.887 71.3074 196.479C71.3074 198.053 72.2378 199.109 73.7049 199.109C74.7426 199.109 75.4404 198.644 75.7267 197.821H78.0347C77.7305 199.825 76.0308 201.095 73.7049 201.095ZM79.1012 200.916V191.97H81.1766L81.3913 193.241H81.5345C82.0891 192.346 82.6974 191.791 84.2003 191.791H84.8444V194.081C84.5224 194.028 84.2003 194.01 83.8783 194.01C81.9102 194.01 81.3913 195.459 81.3913 196.747V200.916H79.1012ZM91.6336 198.089H93.8342C93.4764 199.932 91.9377 201.095 89.6655 201.095C86.9996 201.095 85.0673 199.288 85.0673 196.533C85.0673 193.58 87.107 191.791 89.576 191.791C91.7767 191.791 93.8163 193.187 93.8163 196.389C93.8163 196.604 93.7985 196.801 93.7806 197.051H87.3396C87.429 198.34 88.2699 199.27 89.6655 199.27C90.6674 199.27 91.3831 198.858 91.6336 198.089ZM89.576 193.616C88.3415 193.616 87.5185 194.439 87.3575 195.513H91.6336C91.5799 194.403 90.7569 193.616 89.576 193.616ZM98.8445 201.095C96.3396 201.095 96.0534 199.467 96.0534 198.483V193.777H94.139V191.97H94.7473C95.8387 191.97 96.2681 191.577 96.2681 190.61V189.537H98.3435V191.97H100.687V193.777H98.3435V198.179C98.3435 198.68 98.4687 199.288 99.5422 199.288C99.8106 199.288 100.151 199.234 100.419 199.163V200.898C100.025 200.988 99.4886 201.095 98.8445 201.095ZM109.559 201.095C107.036 201.095 105.712 199.896 105.587 198.053H107.787C107.913 199.02 108.628 199.395 109.541 199.395C110.239 199.395 110.847 199.127 110.847 198.483C110.847 197.803 110.239 197.517 109.272 197.266L108.432 197.051C107.233 196.765 105.873 196.282 105.873 194.529C105.873 192.74 107.448 191.791 109.219 191.791C111.634 191.791 112.743 193.062 112.869 194.529H110.668C110.579 193.885 110.078 193.491 109.237 193.491C108.539 193.491 108.056 193.831 108.056 194.403C108.056 195.03 108.664 195.191 109.523 195.423L110.364 195.638C111.92 196.032 113.03 196.747 113.03 198.429C113.03 200.272 111.455 201.095 109.559 201.095ZM118.465 201.095C115.674 201.095 113.778 199.181 113.778 196.479C113.778 193.67 115.817 191.791 118.43 191.791C120.505 191.791 122.473 192.901 122.759 195.244H120.469C120.272 194.421 119.503 193.777 118.43 193.777C117.07 193.777 116.068 194.887 116.068 196.479C116.068 198.053 116.998 199.109 118.465 199.109C119.503 199.109 120.201 198.644 120.487 197.821H122.795C122.491 199.825 120.791 201.095 118.465 201.095ZM123.862 200.916V191.97H125.937L126.152 193.241H126.295C126.85 192.346 127.458 191.791 128.961 191.791H129.605V194.081C129.283 194.028 128.961 194.01 128.639 194.01C126.671 194.01 126.152 195.459 126.152 196.747V200.916H123.862ZM136.394 198.089H138.595C138.237 199.932 136.698 201.095 134.426 201.095C131.76 201.095 129.828 199.288 129.828 196.533C129.828 193.58 131.868 191.791 134.337 191.791C136.537 191.791 138.577 193.187 138.577 196.389C138.577 196.604 138.559 196.801 138.541 197.051H132.1C132.19 198.34 133.03 199.27 134.426 199.27C135.428 199.27 136.144 198.858 136.394 198.089ZM134.337 193.616C133.102 193.616 132.279 194.439 132.118 195.513H136.394C136.34 194.403 135.517 193.616 134.337 193.616ZM145.983 198.089H148.184C147.826 199.932 146.287 201.095 144.015 201.095C141.349 201.095 139.417 199.288 139.417 196.533C139.417 193.58 141.456 191.791 143.925 191.791C146.126 191.791 148.166 193.187 148.166 196.389C148.166 196.604 148.148 196.801 148.13 197.051H141.689C141.778 198.34 142.619 199.27 144.015 199.27C145.017 199.27 145.732 198.858 145.983 198.089ZM143.925 193.616C142.691 193.616 141.868 194.439 141.707 195.513H145.983C145.929 194.403 145.106 193.616 143.925 193.616ZM149.431 200.916V191.97H151.524L151.721 193.026H151.864C152.401 192.328 153.152 191.791 154.494 191.791C156.623 191.791 157.983 193.151 157.983 195.495V200.916H155.693V195.96C155.693 194.493 154.852 193.777 153.778 193.777C152.687 193.777 151.721 194.475 151.721 196.067V200.916H149.431ZM65.6161 220.916V211.97H67.6915L67.9062 213.241H68.0493C68.604 212.346 69.2123 211.791 70.7152 211.791H71.3593V214.081C71.0372 214.028 70.7152 214.01 70.3931 214.01C68.4251 214.01 67.9062 215.459 67.9062 216.747V220.916H65.6161ZM78.1485 218.089H80.3491C79.9913 219.932 78.4526 221.095 76.1804 221.095C73.5145 221.095 71.5822 219.288 71.5822 216.533C71.5822 213.58 73.6219 211.791 76.0909 211.791C78.2916 211.791 80.3312 213.187 80.3312 216.389C80.3312 216.604 80.3133 216.801 80.2954 217.051H73.8545C73.9439 218.34 74.7848 219.27 76.1804 219.27C77.1823 219.27 77.898 218.858 78.1485 218.089ZM76.0909 213.616C74.8564 213.616 74.0334 214.439 73.8724 215.513H78.1485C78.0948 214.403 77.2718 213.616 76.0909 213.616ZM85.8586 221.095C83.0675 221.095 81.171 219.181 81.171 216.479C81.171 213.67 83.2107 211.791 85.8228 211.791C87.8983 211.791 89.8664 212.901 90.1526 215.244H87.8625C87.6657 214.421 86.8963 213.777 85.8228 213.777C84.4631 213.777 83.4612 214.887 83.4612 216.479C83.4612 218.053 84.3915 219.109 85.8586 219.109C86.8963 219.109 87.5941 218.644 87.8804 217.821H90.1884C89.8842 219.825 88.1845 221.095 85.8586 221.095ZM95.5531 221.095C92.8872 221.095 90.8297 219.181 90.8297 216.425C90.8297 213.67 92.8693 211.791 95.5531 211.791C98.2368 211.791 100.276 213.688 100.276 216.425C100.276 219.198 98.2547 221.095 95.5531 221.095ZM95.5531 219.109C97.0381 219.109 98.0042 217.928 98.0042 216.425C98.0042 214.94 97.0202 213.777 95.5531 213.777C94.086 213.777 93.1198 214.94 93.1198 216.425C93.1198 217.928 94.086 219.109 95.5531 219.109ZM101.455 220.916V211.97H103.531L103.745 213.241H103.888C104.443 212.346 105.051 211.791 106.554 211.791H107.198V214.081C106.876 214.028 106.554 214.01 106.232 214.01C104.264 214.01 103.745 215.459 103.745 216.747V220.916H101.455ZM114.238 208.213H116.528V220.916H114.668L114.471 219.86H114.31C113.88 220.433 113.039 221.095 111.644 221.095C109.246 221.095 107.439 219.27 107.439 216.425C107.439 213.509 109.3 211.791 111.644 211.791C112.86 211.791 113.755 212.274 114.238 212.811V208.213ZM112.002 219.109C113.361 219.109 114.238 218.035 114.238 216.425C114.238 214.851 113.361 213.777 112.002 213.777C110.642 213.777 109.729 214.851 109.729 216.425C109.729 218.035 110.642 219.109 112.002 219.109ZM119.192 210.825C118.441 210.825 117.779 210.181 117.779 209.447C117.779 208.66 118.441 208.052 119.192 208.052C119.943 208.052 120.57 208.66 120.57 209.447C120.57 210.181 119.943 210.825 119.192 210.825ZM118.047 220.916V211.97H120.337V220.916H118.047ZM121.852 220.916V211.97H123.946L124.143 213.026H124.286C124.822 212.328 125.574 211.791 126.916 211.791C129.045 211.791 130.405 213.151 130.405 215.495V220.916H128.114V215.96C128.114 214.493 127.274 213.777 126.2 213.777C125.109 213.777 124.143 214.475 124.143 216.067V220.916H121.852ZM140.258 212.221C139.972 212.525 139.417 212.918 138.809 213.205C139.185 213.688 139.382 214.26 139.382 214.887C139.382 216.783 137.754 217.892 135.624 217.892C135.07 217.892 134.569 217.821 134.122 217.696C133.835 217.839 133.692 218.035 133.692 218.286C133.692 218.805 134.265 218.966 134.873 218.966H136.626C138.773 218.966 139.883 220.004 139.883 221.614C139.883 223.528 138.272 224.673 135.678 224.673C132.833 224.673 131.509 223.26 131.33 221.667L132.69 220.469C132.064 220.129 131.67 219.538 131.67 218.823C131.67 217.982 132.225 217.427 132.869 217.069C132.207 216.55 131.814 215.817 131.814 214.887C131.814 213.133 133.227 211.791 135.517 211.791C136.304 211.791 137.02 211.952 137.593 212.239C138.165 211.952 138.773 211.451 139.131 210.968L140.258 212.221ZM135.624 216.228C136.609 216.228 137.199 215.638 137.199 214.851C137.199 214.028 136.609 213.437 135.624 213.437C134.623 213.437 133.996 214.028 133.996 214.851C133.996 215.638 134.623 216.228 135.624 216.228ZM137.7 221.739C137.7 220.988 137.002 220.755 136.34 220.755H134.712L133.531 221.757C133.728 222.383 134.39 222.956 135.696 222.956C136.787 222.956 137.7 222.562 137.7 221.739ZM142.074 221.005C141.34 221.005 140.714 220.397 140.714 219.646C140.714 218.876 141.34 218.268 142.074 218.268C142.825 218.268 143.434 218.876 143.434 219.646C143.434 220.397 142.825 221.005 142.074 221.005Z" fill="#151D51"/></g></g><rect x="38.7266" y="240.126" width="126.73" height="54.3907" rx="5.43907" fill="white"/><path d="M85.0841 263.119C85.0841 263.759 84.8556 264.248 84.3987 264.588C83.9484 264.927 83.3838 265.097 82.705 265.097C81.9087 265.097 81.2887 264.901 80.8448 264.51C80.4075 264.111 80.1758 263.576 80.1497 262.904H81.4225C81.4551 263.25 81.5791 263.521 81.7945 263.716C82.0164 263.906 82.3199 264 82.705 264C83.0183 264 83.2761 263.932 83.4784 263.795C83.6808 263.651 83.7819 263.439 83.7819 263.158C83.7819 262.995 83.746 262.852 83.6742 262.728C83.609 262.604 83.5013 262.499 83.3512 262.414C83.2076 262.323 83.077 262.254 82.9595 262.209C82.8421 262.163 82.6822 262.111 82.4798 262.052L82.0882 261.935C80.9395 261.589 80.3651 260.952 80.3651 260.026C80.3651 259.425 80.5838 258.945 81.0211 258.586C81.4584 258.227 82.0131 258.048 82.6854 258.048C83.3773 258.048 83.9353 258.237 84.3596 258.616C84.7838 258.988 85.0057 259.471 85.0253 260.065H83.7526C83.7199 259.784 83.6155 259.562 83.4393 259.399C83.263 259.229 83.015 259.144 82.6952 259.144C82.3884 259.144 82.1404 259.219 81.9511 259.37C81.7619 259.52 81.6672 259.719 81.6672 259.967C81.6672 260.104 81.6966 260.228 81.7553 260.339C81.8206 260.443 81.9185 260.535 82.049 260.613C82.1796 260.685 82.2971 260.74 82.4015 260.779C82.5125 260.819 82.6593 260.868 82.8421 260.926L83.1847 261.034C83.3544 261.086 83.5045 261.138 83.6351 261.191C83.7721 261.243 83.9353 261.328 84.1246 261.445C84.3204 261.556 84.4803 261.683 84.6043 261.827C84.7349 261.964 84.8458 262.147 84.9372 262.375C85.0351 262.597 85.0841 262.845 85.0841 263.119ZM88.0923 265.097C87.3286 265.097 86.7086 264.862 86.2321 264.392C85.7622 263.922 85.5272 263.315 85.5272 262.571C85.5272 261.814 85.7687 261.197 86.2517 260.721C86.7412 260.244 87.3482 260.006 88.0727 260.006C88.6797 260.006 89.2084 260.169 89.6587 260.495C90.1091 260.822 90.3702 261.288 90.442 261.895H89.1888C89.1301 261.661 88.9995 261.468 88.7972 261.318C88.6014 261.168 88.3599 261.093 88.0727 261.093C87.7007 261.093 87.3906 261.233 87.1426 261.514C86.9011 261.788 86.7804 262.14 86.7804 262.571C86.7804 263.002 86.8979 263.351 87.1328 263.619C87.3743 263.88 87.6941 264.01 88.0923 264.01C88.6666 264.01 89.0354 263.775 89.1986 263.305H90.4615C90.3767 263.854 90.1189 264.291 89.6881 264.617C89.2639 264.937 88.7319 265.097 88.0923 265.097ZM95.5676 264.059H95.6851V264.999H95.1565C94.6408 264.999 94.3112 264.803 94.1676 264.412C93.8086 264.868 93.2702 265.097 92.5522 265.097C92.0301 265.097 91.6091 264.976 91.2893 264.735C90.976 264.487 90.8193 264.128 90.8193 263.658C90.8193 263.214 90.9662 262.868 91.2599 262.62C91.5601 262.365 91.9517 262.215 92.4347 262.17L93.962 262.013V261.807C93.962 261.546 93.887 261.347 93.7369 261.21C93.5867 261.073 93.3877 261.005 93.1396 261.005C92.6371 261.005 92.3434 261.249 92.2585 261.739H91.0054C91.0576 261.217 91.273 260.799 91.6515 260.486C92.0301 260.166 92.5261 260.006 93.1396 260.006C93.7532 260.006 94.2525 260.166 94.6376 260.486C95.0227 260.799 95.2152 261.269 95.2152 261.895V263.687C95.2152 263.935 95.3327 264.059 95.5676 264.059ZM93.962 263.109V262.875L92.8655 262.992C92.3368 263.051 92.0725 263.256 92.0725 263.609C92.0725 263.961 92.3042 264.137 92.7676 264.137C93.0809 264.137 93.3583 264.056 93.5998 263.893C93.8413 263.723 93.962 263.462 93.962 263.109ZM96.1183 264.999V260.104H97.2638L97.3715 260.681H97.4498C97.7958 260.231 98.2755 260.006 98.889 260.006C99.4764 260.006 99.9398 260.185 100.279 260.544C100.625 260.903 100.798 261.399 100.798 262.033V264.999H99.545V262.287C99.545 261.902 99.4471 261.608 99.2513 261.406C99.0554 261.197 98.8042 261.093 98.4974 261.093C98.1776 261.093 97.91 261.2 97.6946 261.416C97.4792 261.625 97.3715 261.935 97.3715 262.346V264.999H96.1183ZM101.584 264.999V260.104H102.73L102.838 260.681H102.916C103.262 260.231 103.742 260.006 104.355 260.006C104.942 260.006 105.406 260.185 105.745 260.544C106.091 260.903 106.264 261.399 106.264 262.033V264.999H105.011V262.287C105.011 261.902 104.913 261.608 104.717 261.406C104.522 261.197 104.27 261.093 103.963 261.093C103.644 261.093 103.376 261.2 103.161 261.416C102.945 261.625 102.838 261.935 102.838 262.346V264.999H101.584ZM107.687 259.477C107.478 259.477 107.295 259.402 107.138 259.252C106.988 259.102 106.913 258.926 106.913 258.723C106.913 258.508 106.988 258.329 107.138 258.185C107.295 258.035 107.478 257.96 107.687 257.96C107.895 257.96 108.072 258.035 108.215 258.185C108.365 258.329 108.44 258.508 108.44 258.723C108.44 258.926 108.365 259.102 108.215 259.252C108.065 259.402 107.889 259.477 107.687 259.477ZM107.06 264.999V260.104H108.313V264.999H107.06ZM109.103 264.999V260.104H110.249L110.356 260.681H110.435C110.781 260.231 111.26 260.006 111.874 260.006C112.461 260.006 112.925 260.185 113.264 260.544C113.61 260.903 113.783 261.399 113.783 262.033V264.999H112.53V262.287C112.53 261.902 112.432 261.608 112.236 261.406C112.04 261.197 111.789 261.093 111.482 261.093C111.163 261.093 110.895 261.2 110.68 261.416C110.464 261.625 110.356 261.935 110.356 262.346V264.999H109.103ZM119.136 260.241C118.947 260.437 118.682 260.616 118.343 260.779C118.552 261.047 118.656 261.354 118.656 261.7C118.656 262.209 118.464 262.61 118.079 262.904C117.694 263.198 117.201 263.344 116.6 263.344C116.307 263.344 116.032 263.309 115.778 263.237C115.621 263.315 115.543 263.423 115.543 263.56C115.543 263.808 115.758 263.932 116.189 263.932H117.149C117.723 263.932 118.163 264.062 118.47 264.323C118.777 264.578 118.93 264.93 118.93 265.381C118.93 265.903 118.725 266.311 118.314 266.605C117.902 266.905 117.341 267.055 116.63 267.055C115.899 267.055 115.331 266.898 114.926 266.585C114.528 266.278 114.303 265.887 114.251 265.41L114.995 264.754C114.623 264.552 114.437 264.252 114.437 263.854C114.437 263.455 114.655 263.136 115.093 262.894C114.708 262.594 114.515 262.196 114.515 261.7C114.515 261.21 114.698 260.805 115.063 260.486C115.435 260.166 115.928 260.006 116.542 260.006C116.972 260.006 117.351 260.088 117.677 260.251C118.023 260.074 118.304 259.843 118.519 259.556L119.136 260.241ZM116.6 262.434C116.861 262.434 117.07 262.365 117.227 262.228C117.384 262.085 117.462 261.902 117.462 261.68C117.462 261.452 117.384 261.266 117.227 261.122C117.077 260.978 116.868 260.907 116.6 260.907C116.333 260.907 116.117 260.978 115.954 261.122C115.791 261.266 115.709 261.452 115.709 261.68C115.709 261.902 115.791 262.085 115.954 262.228C116.117 262.365 116.333 262.434 116.6 262.434ZM117.736 265.449C117.736 265.26 117.664 265.123 117.521 265.038C117.377 264.953 117.201 264.911 116.992 264.911H116.101L115.455 265.459C115.514 265.648 115.641 265.805 115.837 265.929C116.039 266.053 116.307 266.115 116.639 266.115C116.959 266.115 117.22 266.056 117.423 265.939C117.632 265.828 117.736 265.665 117.736 265.449ZM123.777 259.644V260.104H125.021V261.093H123.777V264.999H122.524V261.093H121.496V260.104H122.524V259.575C122.524 259.079 122.671 258.701 122.965 258.439C123.265 258.178 123.663 258.048 124.159 258.048C124.453 258.048 124.766 258.103 125.099 258.214L124.884 259.125C124.733 259.073 124.567 259.046 124.384 259.046C123.98 259.046 123.777 259.246 123.777 259.644ZM127.707 265.097C126.97 265.097 126.353 264.859 125.857 264.382C125.367 263.899 125.123 263.286 125.123 262.542C125.123 261.798 125.367 261.191 125.857 260.721C126.346 260.244 126.963 260.006 127.707 260.006C128.451 260.006 129.068 260.244 129.558 260.721C130.047 261.191 130.292 261.798 130.292 262.542C130.292 263.292 130.047 263.906 129.558 264.382C129.068 264.859 128.451 265.097 127.707 265.097ZM127.707 264.01C128.105 264.01 128.428 263.87 128.677 263.589C128.925 263.309 129.049 262.959 129.049 262.542C129.049 262.13 128.925 261.788 128.677 261.514C128.428 261.233 128.105 261.093 127.707 261.093C127.309 261.093 126.986 261.233 126.738 261.514C126.497 261.788 126.376 262.13 126.376 262.542C126.376 262.959 126.5 263.309 126.748 263.589C126.996 263.87 127.316 264.01 127.707 264.01ZM130.898 264.999V260.104H132.034L132.151 260.799H132.229C132.399 260.525 132.588 260.326 132.797 260.202C133.006 260.071 133.303 260.006 133.688 260.006H134.041V261.259C133.884 261.233 133.708 261.22 133.512 261.22C133.022 261.22 132.673 261.367 132.464 261.661C132.255 261.948 132.151 262.3 132.151 262.718V264.999H130.898ZM80.1791 275.999V271.104H81.3148L81.4323 271.799H81.5106C81.6803 271.525 81.8696 271.326 82.0784 271.202C82.2873 271.071 82.5843 271.006 82.9693 271.006H83.3218V272.259C83.1651 272.233 82.9889 272.22 82.7931 272.22C82.3036 272.22 81.9544 272.367 81.7455 272.661C81.5367 272.948 81.4323 273.3 81.4323 273.718V275.999H80.1791ZM86.9977 274.452H88.202C88.1041 274.961 87.8528 275.363 87.4481 275.656C87.05 275.95 86.5409 276.097 85.9208 276.097C85.1833 276.097 84.5795 275.868 84.1096 275.412C83.6397 274.948 83.4047 274.344 83.4047 273.6C83.4047 272.817 83.6397 272.191 84.1096 271.721C84.5861 271.244 85.1735 271.006 85.8719 271.006C86.5245 271.006 87.0728 271.218 87.5166 271.642C87.967 272.067 88.1922 272.693 88.1922 273.522C88.1922 273.581 88.1856 273.702 88.1726 273.884H84.6481C84.6742 274.243 84.7982 274.537 85.0201 274.765C85.2485 274.987 85.5488 275.098 85.9208 275.098C86.5017 275.098 86.8607 274.883 86.9977 274.452ZM85.8719 272.005C85.5455 272.005 85.2714 272.102 85.0495 272.298C84.8341 272.494 84.7035 272.742 84.6579 273.042H86.9977C86.9847 272.736 86.8737 272.488 86.6649 272.298C86.456 272.102 86.1917 272.005 85.8719 272.005ZM91.1777 276.097C90.414 276.097 89.794 275.862 89.3175 275.392C88.8476 274.922 88.6126 274.315 88.6126 273.571C88.6126 272.814 88.8541 272.197 89.3371 271.721C89.8266 271.244 90.4336 271.006 91.1581 271.006C91.7651 271.006 92.2938 271.169 92.7441 271.495C93.1945 271.822 93.4556 272.288 93.5274 272.895H92.2742C92.2155 272.661 92.0849 272.468 91.8826 272.318C91.6868 272.168 91.4453 272.093 91.1581 272.093C90.7861 272.093 90.476 272.233 90.228 272.514C89.9865 272.788 89.8658 273.14 89.8658 273.571C89.8658 274.002 89.9833 274.351 90.2182 274.619C90.4597 274.88 90.7795 275.01 91.1777 275.01C91.752 275.01 92.1208 274.775 92.284 274.305H93.5469C93.4621 274.854 93.2043 275.291 92.7735 275.617C92.3493 275.937 91.8173 276.097 91.1777 276.097ZM96.4434 276.097C95.7059 276.097 95.0891 275.859 94.593 275.382C94.1035 274.899 93.8588 274.286 93.8588 273.542C93.8588 272.798 94.1035 272.191 94.593 271.721C95.0826 271.244 95.6993 271.006 96.4434 271.006C97.1875 271.006 97.8043 271.244 98.2938 271.721C98.7833 272.191 99.0281 272.798 99.0281 273.542C99.0281 274.292 98.7833 274.906 98.2938 275.382C97.8043 275.859 97.1875 276.097 96.4434 276.097ZM96.4434 275.01C96.8416 275.01 97.1646 274.87 97.4127 274.589C97.6607 274.309 97.7847 273.959 97.7847 273.542C97.7847 273.13 97.6607 272.788 97.4127 272.514C97.1646 272.233 96.8416 272.093 96.4434 272.093C96.0453 272.093 95.7222 272.233 95.4742 272.514C95.2327 272.788 95.1119 273.13 95.1119 273.542C95.1119 273.959 95.2359 274.309 95.484 274.589C95.732 274.87 96.0518 275.01 96.4434 275.01ZM99.634 275.999V271.104H100.77L100.887 271.799H100.965C101.135 271.525 101.324 271.326 101.533 271.202C101.742 271.071 102.039 271.006 102.424 271.006H102.777V272.259C102.62 272.233 102.444 272.22 102.248 272.22C101.758 272.22 101.409 272.367 101.2 272.661C100.992 272.948 100.887 273.3 100.887 273.718V275.999H99.634ZM106.59 269.048H107.843V275.999H106.825L106.717 275.421H106.629C106.289 275.872 105.803 276.097 105.17 276.097C104.504 276.097 103.953 275.862 103.516 275.392C103.085 274.922 102.869 274.305 102.869 273.542C102.869 272.765 103.088 272.148 103.525 271.691C103.963 271.234 104.511 271.006 105.17 271.006C105.784 271.006 106.257 271.192 106.59 271.564V269.048ZM104.465 274.609C104.694 274.876 104.994 275.01 105.366 275.01C105.738 275.01 106.035 274.876 106.257 274.609C106.479 274.341 106.59 273.985 106.59 273.542C106.59 273.111 106.479 272.762 106.257 272.494C106.035 272.226 105.738 272.093 105.366 272.093C104.994 272.093 104.694 272.226 104.465 272.494C104.237 272.762 104.123 273.111 104.123 273.542C104.123 273.979 104.237 274.335 104.465 274.609ZM109.261 270.477C109.053 270.477 108.87 270.402 108.713 270.252C108.563 270.102 108.488 269.926 108.488 269.723C108.488 269.508 108.563 269.329 108.713 269.185C108.87 269.035 109.053 268.96 109.261 268.96C109.47 268.96 109.646 269.035 109.79 269.185C109.94 269.329 110.015 269.508 110.015 269.723C110.015 269.926 109.94 270.102 109.79 270.252C109.64 270.402 109.464 270.477 109.261 270.477ZM108.635 275.999V271.104H109.888V275.999H108.635ZM110.678 275.999V271.104H111.824L111.931 271.681H112.01C112.355 271.231 112.835 271.006 113.449 271.006C114.036 271.006 114.5 271.185 114.839 271.544C115.185 271.903 115.358 272.399 115.358 273.033V275.999H114.105V273.287C114.105 272.902 114.007 272.608 113.811 272.406C113.615 272.197 113.364 272.093 113.057 272.093C112.737 272.093 112.47 272.2 112.254 272.416C112.039 272.625 111.931 272.935 111.931 273.346V275.999H110.678ZM120.711 271.241C120.522 271.437 120.257 271.616 119.918 271.779C120.127 272.047 120.231 272.354 120.231 272.7C120.231 273.209 120.039 273.61 119.653 273.904C119.268 274.198 118.776 274.344 118.175 274.344C117.881 274.344 117.607 274.309 117.353 274.237C117.196 274.315 117.118 274.423 117.118 274.56C117.118 274.808 117.333 274.932 117.764 274.932H118.723C119.298 274.932 119.738 275.062 120.045 275.323C120.352 275.578 120.505 275.93 120.505 276.381C120.505 276.903 120.3 277.311 119.888 277.605C119.477 277.905 118.916 278.055 118.204 278.055C117.473 278.055 116.906 277.898 116.501 277.585C116.103 277.278 115.878 276.887 115.825 276.41L116.569 275.754C116.197 275.552 116.011 275.252 116.011 274.854C116.011 274.455 116.23 274.136 116.667 273.894C116.282 273.594 116.09 273.196 116.09 272.7C116.09 272.21 116.272 271.805 116.638 271.486C117.01 271.166 117.503 271.006 118.116 271.006C118.547 271.006 118.926 271.088 119.252 271.251C119.598 271.074 119.879 270.843 120.094 270.556L120.711 271.241ZM118.175 273.434C118.436 273.434 118.645 273.365 118.802 273.228C118.958 273.085 119.037 272.902 119.037 272.68C119.037 272.452 118.958 272.266 118.802 272.122C118.652 271.978 118.443 271.907 118.175 271.907C117.907 271.907 117.692 271.978 117.529 272.122C117.366 272.266 117.284 272.452 117.284 272.68C117.284 272.902 117.366 273.085 117.529 273.228C117.692 273.365 117.907 273.434 118.175 273.434ZM119.311 276.449C119.311 276.26 119.239 276.123 119.095 276.038C118.952 275.953 118.776 275.911 118.567 275.911H117.676L117.03 276.459C117.088 276.648 117.216 276.805 117.411 276.929C117.614 277.053 117.881 277.115 118.214 277.115C118.534 277.115 118.795 277.056 118.997 276.939C119.206 276.828 119.311 276.665 119.311 276.449ZM127.986 275.059H128.103V275.999H127.574C127.059 275.999 126.729 275.803 126.586 275.412C126.227 275.868 125.688 276.097 124.97 276.097C124.448 276.097 124.027 275.976 123.707 275.735C123.394 275.487 123.237 275.128 123.237 274.658C123.237 274.214 123.384 273.868 123.678 273.62C123.978 273.365 124.37 273.215 124.853 273.17L126.38 273.013V272.807C126.38 272.546 126.305 272.347 126.155 272.21C126.005 272.073 125.806 272.005 125.558 272.005C125.055 272.005 124.761 272.249 124.676 272.739H123.423C123.476 272.217 123.691 271.799 124.069 271.486C124.448 271.166 124.944 271.006 125.558 271.006C126.171 271.006 126.67 271.166 127.056 271.486C127.441 271.799 127.633 272.269 127.633 272.895V274.687C127.633 274.935 127.751 275.059 127.986 275.059ZM126.38 274.109V273.875L125.283 273.992C124.755 274.051 124.49 274.256 124.49 274.609C124.49 274.961 124.722 275.137 125.186 275.137C125.499 275.137 125.776 275.056 126.018 274.893C126.259 274.723 126.38 274.462 126.38 274.109ZM131.209 271.006C131.875 271.006 132.423 271.241 132.854 271.711C133.291 272.181 133.51 272.798 133.51 273.561C133.51 274.338 133.291 274.955 132.854 275.412C132.417 275.868 131.868 276.097 131.209 276.097C130.596 276.097 130.122 275.911 129.789 275.539V277.957H128.536V271.104H129.554L129.662 271.681H129.75C130.09 271.231 130.576 271.006 131.209 271.006ZM130.122 274.609C130.344 274.876 130.641 275.01 131.013 275.01C131.385 275.01 131.686 274.876 131.914 274.609C132.142 274.341 132.257 273.992 132.257 273.561C132.257 273.124 132.142 272.771 131.914 272.504C131.686 272.23 131.385 272.093 131.013 272.093C130.641 272.093 130.344 272.226 130.122 272.494C129.9 272.762 129.789 273.117 129.789 273.561C129.789 273.992 129.9 274.341 130.122 274.609ZM136.79 271.006C137.456 271.006 138.004 271.241 138.435 271.711C138.872 272.181 139.091 272.798 139.091 273.561C139.091 274.338 138.872 274.955 138.435 275.412C137.997 275.868 137.449 276.097 136.79 276.097C136.176 276.097 135.703 275.911 135.37 275.539V277.957H134.117V271.104H135.135L135.243 271.681H135.331C135.67 271.231 136.157 271.006 136.79 271.006ZM135.703 274.609C135.925 274.876 136.222 275.01 136.594 275.01C136.966 275.01 137.266 274.876 137.495 274.609C137.723 274.341 137.837 273.992 137.837 273.561C137.837 273.124 137.723 272.771 137.495 272.504C137.266 272.23 136.966 272.093 136.594 272.093C136.222 272.093 135.925 272.226 135.703 272.494C135.481 272.762 135.37 273.117 135.37 273.561C135.37 273.992 135.481 274.341 135.703 274.609ZM141.62 276.097C140.947 276.097 140.425 275.95 140.053 275.656C139.681 275.356 139.479 274.948 139.446 274.433H140.65C140.716 274.922 141.035 275.167 141.61 275.167C141.819 275.167 141.988 275.128 142.119 275.049C142.256 274.965 142.324 274.837 142.324 274.668C142.324 274.491 142.253 274.358 142.109 274.266C141.972 274.168 141.757 274.08 141.463 274.002L141.003 273.884C140.807 273.839 140.637 273.79 140.494 273.737C140.357 273.679 140.213 273.6 140.063 273.502C139.913 273.398 139.799 273.264 139.72 273.101C139.642 272.931 139.603 272.732 139.603 272.504C139.603 272.034 139.779 271.668 140.131 271.407C140.484 271.14 140.918 271.006 141.434 271.006C142.06 271.006 142.54 271.146 142.873 271.427C143.206 271.708 143.392 272.067 143.431 272.504H142.227C142.174 272.125 141.913 271.936 141.443 271.936C141.247 271.936 141.091 271.982 140.973 272.073C140.856 272.158 140.797 272.279 140.797 272.435C140.797 272.592 140.856 272.706 140.973 272.778C141.097 272.843 141.306 272.915 141.6 272.993L142.06 273.111C142.53 273.228 142.889 273.405 143.137 273.64C143.392 273.875 143.519 274.207 143.519 274.638C143.519 275.121 143.339 275.487 142.98 275.735C142.628 275.976 142.174 276.097 141.62 276.097ZM144.875 276.048C144.672 276.048 144.496 275.976 144.346 275.833C144.202 275.682 144.131 275.506 144.131 275.304C144.131 275.095 144.202 274.919 144.346 274.775C144.496 274.625 144.672 274.55 144.875 274.55C145.084 274.55 145.26 274.625 145.403 274.775C145.547 274.919 145.619 275.095 145.619 275.304C145.619 275.506 145.547 275.682 145.403 275.833C145.26 275.976 145.084 276.048 144.875 276.048ZM147.734 275.833C147.59 275.976 147.414 276.048 147.205 276.048C146.996 276.048 146.816 275.976 146.666 275.833C146.523 275.682 146.451 275.506 146.451 275.304C146.451 275.095 146.523 274.919 146.666 274.775C146.816 274.625 146.996 274.55 147.205 274.55C147.414 274.55 147.59 274.625 147.734 274.775C147.877 274.919 147.949 275.095 147.949 275.304C147.949 275.506 147.877 275.682 147.734 275.833ZM149.525 276.048C149.316 276.048 149.137 275.976 148.987 275.833C148.843 275.682 148.771 275.506 148.771 275.304C148.771 275.095 148.843 274.919 148.987 274.775C149.137 274.625 149.316 274.55 149.525 274.55C149.734 274.55 149.91 274.625 150.054 274.775C150.197 274.919 150.269 275.095 150.269 275.304C150.269 275.506 150.194 275.682 150.044 275.833C149.9 275.976 149.727 276.048 149.525 276.048Z" fill="#151D51"/><path fill-rule="evenodd" clip-rule="evenodd" d="M60.4833 264.938C61.892 264.938 63.034 263.796 63.034 262.388C63.034 260.979 61.892 259.837 60.4833 259.837C59.0745 259.837 57.9325 260.979 57.9325 262.388C57.9325 263.796 59.0745 264.938 60.4833 264.938Z" fill="#6C1DA0"/><path fill-rule="evenodd" clip-rule="evenodd" d="M67.1792 270.996C68.5879 270.996 69.73 269.854 69.73 268.445C69.73 267.037 68.5879 265.895 67.1792 265.895C65.7704 265.895 64.6284 267.037 64.6284 268.445C64.6284 269.854 65.7704 270.996 67.1792 270.996Z" fill="#483FDD"/><path fill-rule="evenodd" clip-rule="evenodd" d="M53.7876 270.996C55.1963 270.996 56.3384 269.854 56.3384 268.445C56.3384 267.037 55.1963 265.895 53.7876 265.895C52.3788 265.895 51.2368 267.037 51.2368 268.445C51.2368 269.854 52.3788 270.996 53.7876 270.996Z" fill="#5CD6C0"/><g opacity="0.5"><rect x="174.16" y="240.126" width="126.73" height="54.3907" rx="5.43907" fill="white"/></g></g></g><defs><clipPath id="clip0_1_1232"><rect width="209" height="436" rx="14" fill="white"/></clipPath><clipPath id="clip1_1_1232"><rect x="-0.335938" y="-18" width="209.667" height="454" fill="white"/></clipPath><clipPath id="clip2_1_1232"><rect width="209.667" height="143.133" fill="white" transform="translate(-0.335449 -0.108337)"/></clipPath><clipPath id="clip3_1_1232"><rect width="173.884" height="63" fill="white" transform="translate(17.5547 160.916)"/></clipPath></defs></svg>