<svg width="24" height="25" viewBox="0 0 24 25" fill="none" xmlns="http://www.w3.org/2000/svg"><mask id="mask0_330_429" style="mask-type:alpha" maskUnits="userSpaceOnUse" x="0" y="0" width="24" height="25"><path fill-rule="evenodd" clip-rule="evenodd" d="M24 0.995605H-2.38419e-07V24.9956H24V0.995605Z" fill="white"/></mask><g mask="url(#mask0_330_429)"><path fill-rule="evenodd" clip-rule="evenodd" d="M12 24.9956C18.6274 24.9956 24 19.623 24 12.9956C24 6.36814 18.6274 0.995605 12 0.995605C5.3726 0.995605 -2.38419e-07 6.36814 -2.38419e-07 12.9956C-2.38419e-07 19.623 5.3726 24.9956 12 24.9956Z" fill="#483FDD"/><path fill-rule="evenodd" clip-rule="evenodd" d="M11.995 9.83561C10.3823 9.83561 9.07495 8.52821 9.07495 6.91554C9.07495 5.30286 10.3823 3.99561 11.995 3.99561C13.6076 3.99561 14.915 5.30286 14.915 6.91554C14.915 8.52821 13.6076 9.83561 11.995 9.83561" fill="#5CD6C0"/><path fill-rule="evenodd" clip-rule="evenodd" d="M4.7251 12.7522C4.67948 12.7522 4.63305 12.7483 4.58648 12.7401C4.17881 12.668 3.90976 12.2965 3.98583 11.9102C4.31579 10.2336 5.25241 8.69352 6.62306 7.57364C6.93718 7.31699 7.4115 7.3501 7.68246 7.64763C7.95342 7.94516 7.91846 8.39444 7.60434 8.65109C6.491 9.56076 5.73042 10.8109 5.4626 12.171C5.39527 12.5133 5.07978 12.7522 4.7251 12.7522" fill="white"/><path fill-rule="evenodd" clip-rule="evenodd" d="M19.2906 12.7522C18.9492 12.7522 18.6432 12.5196 18.5711 12.1814C18.2778 10.8055 17.5077 9.55848 16.4024 8.66959C16.0891 8.41758 16.045 7.96604 16.3036 7.66115C16.5625 7.35599 17.026 7.31301 17.3393 7.5649C18.7016 8.66048 19.6506 10.1965 20.0116 11.8902C20.0941 12.2775 19.8387 12.6568 19.4409 12.7371C19.3905 12.7473 19.3402 12.7522 19.2906 12.7522" fill="white"/><path fill-rule="evenodd" clip-rule="evenodd" d="M11.7591 21.0226C10.9259 21.0226 10.0915 20.8667 9.29619 20.5545C8.93767 20.4138 8.7504 19.979 8.87792 19.5834C9.00532 19.1878 9.39941 18.9811 9.75779 19.1218C11.0512 19.6292 12.4705 19.629 13.7542 19.1214C14.1121 18.9799 14.5068 19.1853 14.6352 19.5806C14.7635 19.976 14.5772 20.4112 14.2191 20.5529C13.4271 20.866 12.5937 21.0226 11.7591 21.0226" fill="white"/><path fill-rule="evenodd" clip-rule="evenodd" d="M18.081 19.5629C16.469 19.5629 15.1621 18.256 15.1621 16.6441C15.1621 15.032 16.469 13.7251 18.081 13.7251C19.6931 13.7251 20.9999 15.032 20.9999 16.6441C20.9999 18.256 19.6931 19.5629 18.081 19.5629" fill="#5CD6C0"/><path fill-rule="evenodd" clip-rule="evenodd" d="M5.91892 19.5629C4.30687 19.5629 3 18.256 3 16.6441C3 15.032 4.30687 13.7251 5.91892 13.7251C7.53097 13.7251 8.83784 15.032 8.83784 16.6441C8.83784 18.256 7.53097 19.5629 5.91892 19.5629" fill="#5CD6C0"/></g></svg>