<svg width="1.4rem" height="1.4rem" viewBox="0 0 14 14" fill="none" xmlns="http://www.w3.org/2000/svg"><path d="M9.69177 0C9.72435 0 9.75693 0 9.79136 0C9.87128 0.987309 9.49443 1.72503 9.03643 2.25925C8.58704 2.78979 7.97166 3.30435 6.97636 3.22628C6.90996 2.25311 7.28743 1.5701 7.74481 1.03711C8.169 0.540377 8.94667 0.0983621 9.69177 0Z" fill="#151D51"/><path d="M12.7067 10.2754C12.7067 10.2852 12.7067 10.2939 12.7067 10.3031C12.4269 11.1502 12.028 11.8763 11.5411 12.55C11.0966 13.1617 10.5519 13.9849 9.57936 13.9849C8.73898 13.9849 8.18077 13.4445 7.31949 13.4298C6.40841 13.415 5.90738 13.8816 5.07438 13.999C4.97909 13.999 4.8838 13.999 4.79036 13.999C4.17867 13.9105 3.68501 13.4261 3.32538 12.9896C2.26491 11.6998 1.44543 10.0338 1.29297 7.90181C1.29297 7.69279 1.29297 7.48439 1.29297 7.27537C1.35752 5.74952 2.09892 4.50893 3.08439 3.90769C3.60448 3.58802 4.31945 3.31568 5.11557 3.4374C5.45676 3.49027 5.80533 3.60707 6.11087 3.72265C6.40042 3.83392 6.76252 4.03126 7.10555 4.02081C7.33793 4.01405 7.56909 3.89294 7.80331 3.80749C8.48939 3.55974 9.16194 3.27572 10.0484 3.40912C11.1138 3.57019 11.87 4.04356 12.3372 4.7739C11.4359 5.34747 10.7234 6.21183 10.8452 7.68787C10.9534 9.02867 11.7329 9.81311 12.7067 10.2754Z" fill="#151D51"/></svg>