<svg width="1.4rem" height="1.4rem" viewBox="0 0 14 14" fill="none" xmlns="http://www.w3.org/2000/svg"><g clip-path="url(#clip0_1_1563)"><path fill-rule="evenodd" clip-rule="evenodd" d="M0.608696 1.71289C0.272546 1.71289 0 1.9812 0 2.3122V10.7026C0 11.0336 0.272546 11.3019 0.608696 11.3019H4.86957V12.8395H4.26087C3.92472 12.8395 3.65217 13.1078 3.65217 13.4388C3.65217 13.7698 3.92472 14.0381 4.26087 14.0381H9.73913C10.0753 14.0381 10.3478 13.7698 10.3478 13.4388C10.3478 13.1078 10.0753 12.8395 9.73913 12.8395H9.13043V11.3019H13.3913C13.7275 11.3019 14 11.0336 14 10.7026V2.3122C14 1.9812 13.7275 1.71289 13.3913 1.71289H0.608696Z" fill="#151D51"/></g><defs><clipPath id="clip0_1_1563"><rect width="14" height="14" fill="white"/></clipPath></defs></svg>