<svg width="24" height="24" viewBox="0 0 24 24" fill="none" xmlns="http://www.w3.org/2000/svg"><g clip-path="url(#clip0_1_1494)"><circle cx="12" cy="12" r="12" fill="#483FDD"/><path d="M12 3V5" stroke="#5CD6C0" stroke-width="2" stroke-linecap="round"/><path d="M19.0703 5.92871L17.6561 7.34292" stroke="#5CD6C0" stroke-width="2" stroke-linecap="round"/><path d="M22 13L20 13" stroke="#5CD6C0" stroke-width="2" stroke-linecap="round"/><path d="M4 13L2 13" stroke="#5CD6C0" stroke-width="2" stroke-linecap="round"/><path d="M6.34375 7.34277L4.92954 5.92856" stroke="#5CD6C0" stroke-width="2" stroke-linecap="round"/><path fill-rule="evenodd" clip-rule="evenodd" d="M7.61334 12.0157C7.61642 9.84268 9.18781 8.0477 11.25 7.70591L11.25 7.46812C11.25 7.0714 11.5857 6.74997 12 6.74997C12.4143 6.74997 12.75 7.0714 12.75 7.46812L12.75 7.71772C14.8001 8.09054 16.3549 9.89796 16.3514 12.062L16.3452 15.8726L16.3826 15.8728C16.8194 15.8756 17.1739 16.2327 17.1732 16.673C17.172 17.112 16.8165 17.4662 16.3801 17.4646L7.65953 17.4172C7.22276 17.4144 6.86824 17.0573 6.86897 16.6171C6.86967 16.1954 7.19478 15.8531 7.60706 15.827L7.61334 12.0157Z" fill="white"/><path d="M12 19.75C12.9665 19.75 13.75 18.9665 13.75 18H10.25C10.25 18.9665 11.0335 19.75 12 19.75Z" fill="white"/></g><defs><clipPath id="clip0_1_1494"><rect width="24" height="24" fill="white"/></clipPath></defs></svg>