<svg width="319" height="150" viewBox="0 0 319 150" fill="none" xmlns="http://www.w3.org/2000/svg"><g clip-path="url(#clip0_1_1737)"><rect x="-100" y="-370" width="520" height="520" rx="260" fill="#4D56E5"/><ellipse cx="11.1527" cy="10.882" rx="11.1527" ry="10.882" transform="matrix(-0.996418 0.0845608 0.0888536 0.996045 209.871 46.1875)" fill="#F5AC4C"/><mask id="mask0_1_1737" style="mask-type:alpha" maskUnits="userSpaceOnUse" x="188" y="47" width="23" height="22"><ellipse cx="11.1527" cy="10.882" rx="11.1527" ry="10.882" transform="matrix(-0.996418 0.0845606 0.0888533 0.996045 209.871 46.1875)" fill="#F5AC4C"/></mask><g mask="url(#mask0_1_1737)"><path d="M193.171 62.1809C193.343 62.2035 193.68 62.3107 193.787 62.4261C193.923 62.3425 194.277 62.3253 194.449 62.3479C195.037 62.4247 195.735 63.0669 195.491 63.3707C194.701 64.3634 192.361 64.1085 191.847 62.8949C191.701 62.5402 192.557 62.1008 193.171 62.1809Z" fill="white"/><ellipse cx="12.1471" cy="9.74107" rx="12.1471" ry="9.74107" transform="matrix(-0.996418 0.0845608 0.0888536 0.996045 204.125 33.8848)" fill="#151D51"/><ellipse cx="12.1471" cy="9.74107" rx="12.1471" ry="9.74107" transform="matrix(-0.996418 0.0845607 0.0888537 0.996045 220.566 41.0605)" fill="#151D51"/></g><rect width="6.78728" height="11.2133" rx="3.39364" transform="matrix(0.982429 -0.184337 0.193593 0.981539 197.961 63.3887)" fill="#F5AC4C"/><path fill-rule="evenodd" clip-rule="evenodd" d="M182.22 112.544C182.299 112.224 182.324 112.121 182.318 112.211L222.856 115.026C222.457 120.315 221.002 127.215 219.417 132.306C217.549 138.305 215.178 145.263 212.987 151.684L212.856 152.067C210.657 158.511 208.671 164.33 207.289 168.783C206.572 171.091 206.151 172.612 205.954 173.46C205.924 173.587 205.907 173.665 205.9 173.699C205.912 173.639 205.945 173.449 205.979 173.159C206.012 172.869 206.093 172.106 206.073 171.054C206.059 170.265 205.984 167.81 204.901 164.823L165.939 178.949C164.776 175.742 164.658 172.985 164.637 171.818C164.61 170.388 164.719 169.17 164.815 168.353C165.005 166.719 165.325 165.197 165.588 164.067C166.132 161.732 166.909 159.071 167.709 156.496C169.267 151.477 171.414 145.184 173.508 139.05C173.593 138.799 173.679 138.549 173.764 138.3C175.997 131.756 178.176 125.35 179.847 119.985C181.273 115.406 182.008 113.411 182.22 112.544ZM205.896 173.72C205.896 173.72 205.898 173.714 205.9 173.699C205.898 173.713 205.896 173.72 205.896 173.72Z" fill="#151D51"/><path d="M198.343 81.3871C186.266 95.4939 158.522 95.9814 139.685 91.7682C120.847 87.555 115.567 82.5882 97.9195 60.2122" stroke="#009796" stroke-width="19.8929"/><path d="M105.31 25.7196H135.109C142.408 25.7196 148.324 31.6362 148.324 38.9346V95.0022C148.324 102.301 142.408 108.217 135.109 108.217H105.31C98.0112 108.217 92.0946 102.301 92.0946 95.0022V38.9346C92.0946 31.6362 98.0112 25.7196 105.31 25.7196Z" fill="white" stroke="#151D51" stroke-width="9.43927"/><path d="M126.004 28.5977H131L130.162 28.6884C128.148 28.9067 126.325 29.9808 125.157 31.6369L126.004 28.5977Z" fill="#151D51"/><path d="M115.028 28.5977H109.965L110.803 28.6884C112.817 28.9067 114.64 29.9808 115.807 31.6369L115.028 28.5977Z" fill="#151D51"/><ellipse cx="120.483" cy="28.2183" rx="5.84251" ry="5.69856" fill="#151D51"/><path d="M104.512 52.9947L120.876 46.834L137.241 52.9947V67.069C137.241 74.8643 132.979 82.0359 126.132 85.7626L123.42 87.2389C121.834 88.1021 119.919 88.1021 118.333 87.2389L115.62 85.7626C108.774 82.0359 104.512 74.8643 104.512 67.069V52.9947Z" fill="#5CD6C0"/><rect width="6.5653" height="14.2592" rx="3.28265" transform="matrix(0.716596 -0.697488 0.716596 0.697488 108.818 67.3572)" fill="#CEF3EC"/><rect width="6.47335" height="19.6103" rx="3.23667" transform="matrix(-0.73488 -0.678197 -0.697779 0.716313 133.288 63.3961)" fill="white"/><path d="M227.066 93.7186C229.137 83.1235 221.613 73.0893 210.867 72.1135L202.868 71.387C192.329 70.4299 183.155 78.6074 182.901 89.1857L182.35 112.151L222.896 115.061L227.066 93.7186Z" fill="#5CD6C0"/><path d="M217.387 86.1609C222.264 103.913 211.32 122.198 192.944 127C174.567 131.803 155.717 121.305 150.84 103.553" stroke="#5CD6C0" stroke-width="18.2352"/><ellipse cx="12.2533" cy="12.5276" rx="12.2533" ry="12.5276" transform="matrix(-0.243042 -0.970016 -0.972748 0.231864 164.094 106.246)" fill="#F5AC4C"/><ellipse cx="12.5258" cy="12.8061" rx="12.5258" ry="12.8061" transform="matrix(-0.243042 -0.970016 -0.972748 0.231864 101.277 62.4551)" fill="#F5AC4C"/><ellipse cx="212.627" cy="45.0393" rx="9.41184" ry="9.17993" fill="#151D51"/></g><defs><clipPath id="clip0_1_1737"><rect x="-100" y="-370" width="520" height="520" rx="260" fill="white"/></clipPath></defs></svg>